<svg xmlns="http://www.w3.org/2000/svg" xmlns:xlink="http://www.w3.org/1999/xlink" version="1.1" width="750pt" height="750pt" viewBox="0 0 750 750">
<defs>
<clipPath id="clip_1">
<path transform="matrix(.48,0,0,.48,0,0)" d="M0 0H1562.5V1562.5H0Z" fill-rule="evenodd"/>
</clipPath>
<clipPath id="clip_2">
<path transform="matrix(.48,0,0,.48,0,0)" d="M0 0H1562.5V1562.5H0Z" fill-rule="evenodd"/>
</clipPath>
<clipPath id="clip_3">
<path transform="matrix(.48,0,0,.48,0,0)" d="M0 0H1562.5V1562.5H0Z" fill-rule="evenodd"/>
</clipPath>
<path id="font_4_49" d="M.037994386 0V.009994507H.06700134C.121668498 .009994507 .14900208 .033996583 .14900208 .08200073V.6360016C.14900208 .6813304 .121668498 .70399478 .06700134 .70399478H.037994386V.7140045H.23300171L.6139984 .14300537V.6320038C.6139984 .67999777 .58666488 .70399478 .5319977 .70399478H.5039978V.7140045H.7350006V.70399478H.70599368C.6513265 .70399478 .6239929 .67999777 .6239929 .6320038V0H.59399417L.15899658 .6519928V.08200073C.15899658 .033996583 .18633016 .009994507 .24099732 .009994507H.2689972V0H.037994386Z"/>
<path id="font_4_36" d="M0 0V.009994507H.029006958C.050338746 .009994507 .06716919 .015660605 .07949829 .026992798 .09183756 .038335165 .103006999 .058670045 .11300659 .08799744L.33099366 .7140045H.38200379L.6329956 .06300354C.64033 .043004354 .6483307 .029169718 .6569977 .021499634 .6656647 .013829549 .6773326 .009994507 .69200137 .009994507H.70500186V0H.42999269V.009994507H.45300294C.47833253 .009994507 .49666343 .012995402 .5079956 .018997193 .5193278 .024998984 .5249939 .035664876 .5249939 .050994874 .5249939 .05633545 .5243276 .06283569 .522995 .070495609 .5216624 .07816569 .5193329 .08633423 .51600649 .09500122L.45500184 .2590027H.18400574L.1289978 .102005008C.12299601 .08467102 .11999512 .07033793 .11999512 .059005739 .11999512 .041000368 .1279958 .028330485 .14399719 .020996094 .15999858 .013661702 .18566387 .009994507 .22099304 .009994507H.2440033V0H0M.18699646 .2689972H.45100404L.37800599 .46400453C.352005 .5313365 .33133445 .59133407 .31599427 .6439972 .30933128 .623998 .3034973 .6063283 .29849244 .59098818 .2934977 .57565817 .28816734 .559494 .28250123 .5424957 .2768351 .52549746 .26966859 .5049998 .2610016 .4810028L.18699646 .2689972Z"/>
<clipPath id="clip_5">
<path transform="matrix(.48,0,0,.48,0,0)" d="M0 0H1562.5V1562.5H0Z"/>
</clipPath>
<clipPath id="clip_6">
<path transform="matrix(.48,0,0,.48,0,0)" d="M0 0H1562.5V1562.5H0Z"/>
</clipPath>
<clipPath id="clip_7">
<path transform="matrix(.48,0,0,.48,0,0)" d="M331.37736 1018.0576 1116.972 156.23255 1231.1318 260.29457 445.53706 1122.1196 331.37736 1018.0576Z"/>
</clipPath>
<clipPath id="clip_8">
<path transform="matrix(.48,0,0,.48,158.87999,74.88)" d="M0 0H901V967H0Z"/>
</clipPath>
<clipPath id="clip_9">
<path transform="matrix(.48,0,0,.48,0,0)" d="M0 0H1562.5V1562.5H0Z" fill-rule="evenodd"/>
</clipPath>
<path id="font_10_36" d="M1.2920075 .30299378V.30299378C1.2546641 .24633281 1.2156576 .19599915 1.1749878 .1519928 1.1343283 .10799662 1.0919952 .0734965 1.0479889 .04849243 1.0039927 .023498536 .95866397 .011001587 .91200259 .011001587 .8620046 .011001587 .80967208 .01900228 .7550049 .035003663 .7003377 .051005048 .6450043 .07283529 .5890045 .100494388 .53300479 .12816365 .4786682 .15983074 .42599488 .1954956 .3733317 .23116048 .32416789 .26849366 .27850343 .30749513 .23283895 .34649659 .19300334 .38516236 .15899658 .42349244 .125 .46183268 .09899902 .4976705 .08099365 .53100588 .044993085 .5963338 .039993287 .648997 .06599426 .68899539 .097335819 .7369995 .16867066 .7566681 .27999879 .7480011 .3519999 .7426707 .4284973 .7310028 .50949099 .71299746 .5904948 .69500228 .673996 .67266848 .7599945 .6459961 .84599307 .6193339 .9319916 .5904999 1.0179901 .559494 1.1039988 .52849838 1.1880035 .4973348 1.2700043 .46600343 1.2840017 .46066285 1.2978312 .46065776 1.3114929 .46598817 1.3251648 .47132875 1.335668 .4806671 1.3430023 .4940033 1.3716685 .54933169 1.399999 .6096649 1.4279938 .67500308 1.5153351 .87900289 1.5883383 1.0876669 1.6470032 1.3009949 1.6503296 1.3129984 1.6583303 1.3193359 1.6710053 1.3200073 1.68367 1.32134 1.692337 1.3160044 1.6970062 1.3040009 1.7003327 1.2960053 1.70283 1.2800039 1.7044983 1.2559967 1.7061666 1.2319998 1.7073313 1.1974996 1.7079926 1.1524963 1.708664 1.1075033 1.7093353 1.0483399 1.7100067 .9750061 1.7100067 .93634036 1.7103373 .8906708 1.7109985 .83799746 1.7116699 .7853343 1.712504 .7296651 1.713501 .67099 1.7144979 .612325 1.716329 .5536601 1.7189942 .49499513 1.7216696 .43633018 1.7250061 .3809967 1.7290039 .32899476 1.7309977 .30299378 1.7443289 .28599549 1.7689972 .27799989 1.8449961 .2480011 1.9236654 .22967021 2.005005 .2230072 2.011668 .2230072 2.0176647 .2206726 2.022995 .21600342 2.0283356 .21066284 2.0313366 .20466106 2.0319977 .19799805 2.0319977 .19066365 2.0293325 .18433126 2.024002 .17900086 2.019333 .17367046 2.0133312 .17100525 2.0059968 .17100525 1.932663 .17433167 1.8616638 .18899536 1.7929993 .21499634 1.7803345 .21899414 1.7686666 .21632894 1.7579956 .20700073 1.747996 .19833374 1.7439982 .18733216 1.7460022 .17399597 1.7513327 .14333599 1.7573294 .118504848 1.7639923 .09950256 1.7706655 .08050028 1.7783356 .06933085 1.7870026 .06599426 1.7936655 .06332906 1.7986654 .058827718 1.802002 .052490236 1.8053385 .046162923 1.8056692 .039667768 1.8029938 .03300476 1.801 .026331583 1.7966665 .021331788 1.7899933 .018005372 1.7840017 .014668782 1.7776693 .014002482 1.7709961 .01600647 1.7323303 .028671265 1.7046661 .09600321 1.6880035 .21800232 1.684667 .2406667 1.6719971 .2560018 1.6499939 .26400758 1.6166687 .27667237 1.581838 .2898356 1.5455017 .3034973 1.5091654 .3171692 1.4716644 .33167015 1.4329987 .34700013 1.4109955 .3516693 1.3923289 .35550437 1.3769989 .35850526 1.361669 .36150614 1.3475037 .35950218 1.3345032 .3524933 1.3215027 .3454946 1.3073374 .32899476 1.2920075 .30299378M.23199463 .69799807V.69799807C.16666667 .69799807 .126002 .6856639 .11000061 .6609955 .10133362 .6469981 .09983317 .63016256 .10549927 .6104889 .11116537 .5908254 .11833191 .57266238 .1269989 .55599978 .14566548 .5220032 .17199707 .48617045 .20599365 .4485016 .24000041 .41083274 .2791697 .37366233 .3235016 .33699037 .36783348 .30032859 .41516624 .26549784 .46549989 .23249817 .51583358 .19949849 .5671641 .17032878 .6194916 .14498902 .6718292 .119659427 .722997 .09966024 .772995 .084991458 .8230031 .07033285 .869339 .06300354 .91200259 .06300354 .96666976 .06300354 1.0228373 .086502078 1.0805054 .13349915 1.1381735 .18049622 1.1960043 .2496643 1.2539978 .34100343 1.2639974 .3563334 1.266332 .3726654 1.2610016 .3899994 1.2549998 .40800477 1.2433319 .42033897 1.2259979 .42700196 1.1466624 .45700074 1.0654959 .48683167 .98249819 .51649478 .89950057 .546168 .8168335 .57366946 .7344971 .598999 .65216067 .6243286 .5721588 .64549258 .49449159 .66249087 .4168345 .6794993 .3440043 .69066879 .27600099 .69599917 .260671 .6973317 .2460022 .69799807 .23199463 .69799807M1.6369934 1.0809937C1.5663351 .85566207 1.4763388 .6383311 1.3670044 .42900086L1.4069977 .41299439C1.4416657 .39966838 1.4758301 .38650514 1.509491 .37350465 1.543162 .36050416 1.5759989 .3480021 1.6080017 .33599855 1.624003 .32999674 1.6390025 .33233134 1.6529999 .34300233 1.6669973 .35300193 1.6733297 .3666687 1.6719971 .3840027 1.6673279 .45866905 1.6638285 .545166 1.661499 .64349368 1.6591696 .7418315 1.6576691 .85233566 1.6569977 .9750061 1.6569977 .9923401 1.6569977 1.0093384 1.6569977 1.026001 1.6569977 1.0426636 1.6566671 1.0593313 1.6560059 1.076004 1.6560059 1.0873362 1.6536713 1.0936686 1.6490021 1.0950012 1.6443329 1.0963339 1.64033 1.0916647 1.6369934 1.0809937Z"/>
<path id="font_10_81" d="M.8739929 .24899292V.24899292C.8793335 .24433391 .88216659 .2383372 .88249209 .23100281 .88282778 .22366841 .8803304 .21733602 .875 .21200562 .8736674 .21000164 .866333 .20249939 .8529968 .1894989 .83966067 .17649842 .82166036 .16083272 .798996 .14250183 .7763316 .12417094 .75 .10583496 .7200012 .0874939 .69000247 .069163 .65766909 .05366516 .6230011 .041000368 .58833315 .028335572 .5525004 .02100118 .5155029 .018997193 .47850547 .017003378 .44134013 .023671469 .40400697 .039001466 .352005 .06500244 .31167094 .10333761 .28300477 .15400696 .2789968 .15933736 .2733256 .16766866 .2659912 .17900086 .258667 .19033306 .2486674 .19566854 .23599243 .19500733 .23000081 .19500733 .22117107 .19317119 .20950318 .1894989 .19783528 .18583679 .18283081 .1785024 .16448975 .16749573 .14615886 .15649922 .12432861 .13933309 .09899902 .115997318 .07366943 .09266154 .044001264 .06133016 .009994507 .022003174 .0013275147 .012003581-.009338379 .01000468-.022003174 .01600647-.033996583 .021998087-.038330079 .031661989-.035003663 .04499817L.01499939 .2649994C.016331992 .27166239 .020161948 .2769928 .026489258 .2809906 .03282674 .28499858 .039332075 .28600059 .04600525 .28399659 .05333964 .28266398 .05883789 .27882896 .0625 .27249146 .06616211 .26616416 .067326869 .25966899 .06599426 .25300599L.042999269 .15400696C.042338056 .15067037 .043670656 .14800008 .04699707 .1459961 .05033366 .1446635 .053334554 .14532979 .055999757 .147995 .13000489 .21800232 .19233704 .25133769 .24299622 .2480011 .264328 .2466685 .28232829 .23800151 .29699708 .22200012 .30832926 .20999654 .31832887 .19699605 .32699586 .18299866 .34966026 .14166768 .381663 .11000061 .42300416 .08799744 .45499674 .074661258 .48732505 .06932577 .519989 .07199097 .55266317 .07466634 .58433029 .08200073 .61499026 .09399414 .6456604 .10599772 .6743266 .12049866 .70098879 .13749695 .72766116 .15449524 .75116476 .17132569 .77149966 .18798828 .79183456 .20466106 .80766806 .21866353 .81900027 .22999573 .83033248 .24132793 .8363342 .24732971 .8370056 .2480011 .8416646 .2533315 .8476613 .2559967 .8549957 .2559967 .86233016 .2559967 .86866256 .2536621 .8739929 .24899292Z"/>
<path id="font_10_78" d="M.826004 .23699951V.23699951C.8313344 .23233032 .83366397 .22632854 .83299258 .21899414 .83299258 .21165975 .83032736 .20532735 .82499697 .19999695 .78833517 .16466777 .74617007 .13499959 .6985016 .11099243 .65083315 .086995448 .6009979 .06799825 .548996 .054000856 .49699403 .04000346 .44632469 .03050232 .39698792 .025497437 .34766136 .020502726 .30266319 .01966858 .2619934 .022994996 .22133382 .026331583 .18866985 .032999677 .16400147 .042999269 .14000447 .052337648 .12417094 .06350199 .116500858 .07649231 .10883077 .0894928 .10466512 .100992839 .104003909 .11099243 .104003909 .112335208 .10316976 .112838748 .101501468 .11250305 .09983317 .11216736 .09799703 .11099752 .09599304 .10899353 .06332906 .07766215 .034332277 .042999269 .009002686 .005004883 .0009969076-.005666097-.009338379-.008666992-.022003174-.0039978029-.03466797 .0006713867-.040334066 .009668986-.039001466 .022994996-.03233846 .096328739-.024505616 .17065938-.01550293 .24598694-.006500244 .32132469 .004333496 .3936615 .016998291 .46299745 .029663086 .5323334 .044662477 .5950012 .06199646 .651001 .079330448 .70700076 .099497478 .75283309 .12249756 .7884979 .14549764 .8241628 .17233277 .8456624 .20300293 .8529968 .21633911 .8583272 .23017375 .8591614 .24450684 .85549929 .25883994 .85183718 .27067057 .8443349 .27999879 .83299258 .29133097 .81700137 .29516093 .79367068 .29148866 .7630005 .28782655 .7323303 .2786611 .69732668 .2639923 .6579895 .2493337 .61866256 .23183696 .57766219 .21150208 .5349884 .19116719 .49232484 .16983032 .4504954 .14749146 .40950013 .12516277 .36850486 .10399882 .3313395 .083999637 .29800416 .06400045 .2646688 .047999067 .23800151 .035995485 .21800232L.033996583 .21600342C.03133138 .19400025 .028666178 .17133077 .026000977 .147995 .02532959 .14133199 .027994791 .13666789 .033996583 .13400269 .03999837 .13066609 .045333864 .13166301 .05000305 .13699341 .090662639 .17700196 .12949117 .20800273 .16648865 .22999573 .20349629 .2519989 .23582967 .2666677 .26348878 .27400209 .29115806 .28133647 .31032817 .28333537 .32099916 .27999879 .33433534 .27466838 .34100343 .2650045 .34100343 .25100709 .34033204 .23966472 .33499656 .23149109 .32499696 .2264862 .31499736 .2214915 .30400086 .21766155 .29200746 .21499634 .2386729 .18899536 .20283509 .16716004 .18449402 .14949036 .16616313 .13183086 .15699768 .119669597 .15699768 .11300659 .15699768 .1056722 .16600037 .09833781 .18400574 .09100342 .20533753 .082336429 .23467 .07667033 .27200318 .07400513 .30933634 .07133993 .35066734 .07250468 .3959961 .07749939 .44133506 .08250427 .4880015 .09150187 .5359955 .10449219 .58399966 .117492679 .62983199 .1349945 .67349246 .15699768 .7171631 .17900086 .7556661 .20600383 .78900149 .23800659 .79433187 .24333699 .80066427 .24583435 .80799868 .24549866 .81533309 .24516297 .82133486 .24232991 .826004 .23699951M.21499634 .80200198V.80200198C.20366414 .79933676 .19182842 .79133608 .17948914 .7779999 .16716004 .7646637 .1543274 .7434947 .14099121 .7144928 .1276652 .6855011 .11450195 .6466675 .101501468 .59799197 .08850098 .5493266 .075668338 .48832704 .06300354 .4149933 .06167094 .4083303 .06433614 .40366618 .070999149 .40100099 .07766215 .39899699 .08266195 .40099589 .085998538 .40699769 .1259969 .47833763 .15833028 .54200747 .18299866 .5980072 .20766704 .65400698 .22466533 .69967147 .23399353 .7350006 .24333191 .7703298 .2446696 .7926636 .23800659 .80200198 .23666382 .80333456 .23399353 .80400088 .22999573 .80400088 .22466533 .80400088 .21966553 .80333456 .21499634 .80200198Z"/>
<path id="font_10_76" d="M.647995 .27000428V.27000428C.6533356 .26533509 .65600588 .25933329 .65600588 .2519989 .65600588 .2446645 .65367129 .23833211 .6490021 .23300171 .64633688 .23099773 .63616946 .22165935 .61849978 .20498657 .6008301 .18832398 .5774943 .16849263 .54849246 .14549256 .51950076 .12249247 .4863383 .09966024 .44900514 .07699585 .41167198 .054331464 .37183634 .03549703 .3294983 .020492554 .2871704 .0054982507 .2446696-.0019989014 .20199585-.0019989014 .1406657-.002670288 .08566793 .015329997 .037002565 .052001954 .017003378 .06667074 .0033365887 .08400472-.0039978029 .104003909-.011332194 .12400309-.01449585 .14466858-.0134887699 .16600037-.012491862 .18733216-.009328206 .20733135-.0039978029 .22599793 .001332601 .2446645 .0064951579 .2599945 .011489868 .27198792 .016494751 .2839915 .019332886 .29066468 .020004273 .29200746 .024002076 .29799906 .02933248 .30199687 .035995485 .30400086 .04266866 .30600486 .049001058 .30533854 .054992677 .30200196 .06166585 .29866538 .0661672 .2936605 .068496707 .2869873 .07083639 .2803243 .07033793 .27399699 .06700134 .26800538 .06700134 .26733399 .06499735 .2626648 .06098938 .2539978 .056991579 .24533081 .052825929 .23399861 .04849243 .22000122 .04416911 .20600383 .041173299 .19116719 .039505006 .17549134 .03783671 .15982564 .039001466 .1446584 .042999269 .12998963 .04699707 .11533102 .05532837 .10333252 .067993167 .09399414 .09866333 .07132975 .13116455 .057662965 .16549683 .052993776 .1998291 .04833476 .23432923 .0501709 .2689972 .058502199 .30366517 .066833499 .33766685 .0791626 .3710022 .0954895 .40433757 .11182658 .43533836 .12982686 .46400453 .14949036 .49267069 .16916402 .5180003 .18799846 .5399933 .20599365 .56199648 .22399903 .5791626 .23899842 .5914917 .25099183 .603831 .2629954 .61033126 .2693329 .61099246 .27000428 .616333 .2753347 .6225026 .27799989 .62950137 .27799989 .63650009 .27799989 .6426646 .2753347 .647995 .27000428M.009002686 .34899903V.34899903C-.004333496 .34899903-.012669881 .3556671-.01600647 .3690033-.019332886 .38233949-.01499939 .39233909-.0030059815 .39900209 .015660605 .4083303 .03232829 .42066447 .04699707 .43600465 .052327474 .44133506 .058492025 .44400025 .06549072 .44400025 .072499599 .44400025 .07866923 .44166566 .083999637 .43699647 .08933004 .43166606 .092163089 .4255015 .09249878 .4185028 .09283447 .41150413 .09033712 .40533448 .085006717 .3999939 .066340129 .3806661 .045338949 .3650004 .022003174 .35299684 .018005372 .35033164 .013671875 .34899903 .009002686 .34899903Z"/>
<path id="font_10_87" d="M.68699648 .27200318V.27200318C.69233706 .26733399 .6950073 .26133219 .6950073 .2539978 .6950073 .2466634 .69233706 .24033101 .68699648 .23500061 .6850026 .23299663 .67533877 .2238261 .65800479 .20748902 .6406708 .19116211 .6176707 .17149861 .5890045 .14849854 .5603383 .12549846 .5278371 .10282898 .49150086 .08049011 .45516459 .05816142 .41716004 .039332075 .37748719 .024002076 .3378245 .008672078 .297994 .0010070801 .2579956 .0010070801 .23066204 .0010070801 .20366414 .0060068767 .17700196 .01600647 .117004398 .038670858 .07267252 .08899943 .044006349 .16699219 .015340169 .24499512 .0046691896 .34366355 .011993408 .46299745 .011332194 .46832786 .009002686 .47266136 .005004883 .47599793 .0009969076 .4793345-.003672282 .4806671-.009002686 .47999574-.05967204 .47599793-.1056722 .47249858-.14700318 .46949769-.18833415 .4664968-.22133382 .4641622-.2460022 .4624939-.27067057 .46083579-.28367106 .4600067-.28500367 .4600067H-.28700257C-.29433695 .45933534-.30066935 .46149699-.30599977 .4664917-.31133018 .47149659-.31399537 .47766624-.31399537 .4850006-.31399537 .492335-.31166078 .4986674-.30699159 .5039978-.30233256 .5093282-.29633586 .5119934-.28900147 .5119934-.28766886 .5119934-.27400209 .5129954-.2480011 .5149994-.22200012 .51700338-.18733216 .5196686-.14399719 .522995-.10066223 .5263316-.052663167 .52966818 0 .53300479 .0060017907 .53366598 .01083374 .5366618 .01449585 .5419922 .01816813 .54733279 .020670573 .5536702 .022003174 .56100466 .028004965 .6003316 .03583781 .64049276 .04550171 .68148806 .055165609 .72249349 .066329959 .7606608 .07899475 .79599 .091669719 .83132937 .10600281 .8604991 .12199402 .88349917 .1379954 .9064992 .15499878 .91999819 .17300415 .923996 .18033855 .92532858 .19017029 .92415878 .20249939 .92048647 .21482849 .91682437 .22599285 .9046631 .23599243 .8840027 .24332683 .8700053 .24499512 .8465068 .24099732 .8135071 .23699951 .7805074 .22899883 .7423401 .21699524 .6990051 .20500183 .65567019 .19100444 .6110026 .17500305 .56500247 .17166646 .55633547 .17149861 .5508321 .17449951 .54849246 .17750041 .5461629 .18000286 .54499819 .18200684 .54499819 .24667359 .548996 .3081716 .55232748 .36650086 .5549927 .4248301 .55766806 .47332765 .55900576 .5119934 .55900576 .5193278 .55900576 .52549239 .55633547 .53048709 .5509949 .53549197 .5456645 .5379944 .5396678 .5379944 .53300479 .5379944 .52567037 .53549197 .5193329 .53048709 .5139923 .52549239 .5086619 .5193278 .5059967 .5119934 .5059967 .47199504 .5059967 .42082725 .50482687 .35849 .5024872 .29616294 .50015768 .23133342 .49632774 .16400147 .4909973 .15799968 .4909973 .15382894 .49033103 .15148926 .4889984 .14915975 .4876658 .14699809 .48466493 .14500427 .47999574 .1309967 .43866477 .11715698 .40049745 .10348511 .36549378 .0898234 .33050028 .07866415 .30233766 .070007327 .28100587 .07400513 .2496643 .080835979 .2194926 .09049988 .19049073 .10016378 .16149903 .11349487 .13583374 .13049317 .11349487 .14750164 .091166179 .16933696 .07500204 .19599915 .06500244 .22599793 .053670248 .2579956 .050669355 .2919922 .055999757 .32599894 .06133016 .35983277 .07182821 .39349366 .0874939 .4271647 .103159587 .45916749 .121159877 .48950196 .14149475 .5198364 .16182964 .54700216 .18199666 .57099917 .20199585 .59499618 .22199504 .61399337 .23849488 .6279907 .25149537 .6419983 .26449586 .6493327 .2713318 .6499939 .27200318 .6546631 .2773336 .66066488 .27999879 .66799929 .27999879 .6753337 .27999879 .6816661 .2773336 .68699648 .27200318M.07499695 .56199648V.56199648C.07433573 .55799868 .07400513 .5531667 .07400513 .5475006 .07400513 .54183456 .07667033 .53900149 .08200073 .53900149 .08733114 .53900149 .092666629 .5393321 .0980072 .5399933 .1080068 .5406647 .1140035 .5463359 .115997318 .55700686 .1333313 .6070048 .14816284 .6535034 .16049195 .6965027 .17283122 .73950198 .18166606 .77533468 .18699646 .80400088 .19233704 .83266708 .19300334 .8513336 .18899536 .8600006 .18766277 .8639984 .18499756 .86666366 .18099976 .8679962 .17700196 .8686676 .17367046 .8676707 .17100525 .8650055 .16166687 .8550059 .1509959 .83567306 .13899231 .80700686 .1269989 .77834066 .11516825 .7430064 .103500369 .701004 .09183248 .65900167 .08233134 .61266586 .07499695 .56199648M.06199646 .40600587V.40600587C.06466166 .40600587 .06816101 .40966798 .07249451 .4169922 .076828 .42432658 .080825809 .43299357 .084487918 .44299317 .088160198 .45299278 .09083048 .46232606 .09249878 .47099305 .094167079 .47966004 .09399923 .4849955 .09199524 .4869995 .08266703 .4916687 .07400004 .4910024 .06599426 .4850006 .06332906 .48233543 .06133016 .47683207 .05999756 .4684906 .05866496 .4601593 .057662965 .4511617 .056991579 .4414978 .056330366 .4318339 .05649821 .4235026 .057495119 .4165039 .058502199 .40950523 .060002645 .40600587 .06199646 .40600587Z"/>
<path id="font_10_3" d="M0 0Z"/>
<path id="font_10_49" d="M.3670044 .08000183V.08000183C.32033286 .04133606 .2666626 .02166748 .20599365 .020996094 .17732747 .020996094 .14966329 .026662192 .1230011 .037994386 .10233053 .046661378 .08532715 .059992475 .07199097 .07798767 .05866496 .09599304 .05133565 .11633301 .05000305 .13900757 .049331666 .15033977 .052159627 .16517131 .05848694 .1835022 .064824428 .20183309 .07782491 .22183228 .0974884 .24349976 .11716207 .26516725 .14766439 .28733317 .18899536 .30999757 .19766236 .31532798 .20666504 .31532798 .21600342 .30999757 .22467041 .30466715 .22866822 .29666648 .22799683 .28599549 .22799683 .27599589 .22333272 .2686666 .21400452 .26400758 .17800395 .24399822 .15033467 .22332764 .1309967 .20199585 .11166891 .18066406 .10233561 .15999858 .102996829 .13999939 .105662029 .1133372 .11966451 .095336917 .14500427 .085998538 .17766826 .07399496 .21099854 .0711619 .24499512 .07749939 .27900187 .083836879 .30867005 .09833781 .33399964 .1210022 .35733543 .13899739 .38083396 .16582744 .40449525 .20149231 .42816673 .23716736 .45200096 .27867127 .47599793 .32600404 .4999949 .3733368 .52349349 .42433677 .54649356 .4790039 .5694936 .5336711 .5918274 .589503 .6134949 .64649966 .63516238 .7034963 .65549728 .7589925 .6744995 .8129883 .6935018 .8669942 .7110036 .9166667 .727005 .9620056 .7430064 1.0080057 .7573395 1.0486704 .7700043 1.0839996 .78266909 1.1193289 .79333499 1.1473287 .80200198 1.1679993 .8080037 1.1813355 .81800338 1.1866709 .83200076 1.1840057 .8459981 1.1806692 .8526662 1.1716665 .852005 1.1569977 .8486684 1.0436655 .8531647 .93066409 .8654938 .81799319 .87783309 .70533248 .89200338 .5943349 .90800479 .4850006 .91333517 .44566346 .9186656 .4059957 .923996 .3659973 .92933657 .32599894 .93467208 .2856649 .94000247 .24499512 .94066366 .23632813 .94532778 .23132833 .95399478 .22999573 .96333315 .22866313 .9696706 .23199971 .9730072 .2400055 .9956716 .29733787 1.0205027 .35816957 1.0475006 .4225006 1.0744985 .48683167 1.1021627 .5511627 1.1304932 .6154938 1.1588339 .679835 1.1868337 .74083456 1.2144928 .79849246 1.2421621 .85616049 1.2681631 .90682986 1.2924957 .9505005 1.3168284 .99417117 1.338328 1.0273386 1.3569946 1.050003 1.392334 1.0926666 1.4253336 1.1233317 1.4559937 1.1419983 1.4866638 1.1606649 1.5143331 1.1714987 1.5390015 1.1744995 1.5636698 1.1775004 1.5845032 1.1764984 1.6015015 1.1714935 1.6184998 1.1664988 1.6306661 1.1616669 1.6380005 1.1569977 1.6679993 1.1396637 1.6888327 1.1148275 1.7005005 1.082489 1.7121683 1.0501608 1.7123362 1.0179952 1.701004 .98599246 1.6983389 .9793294 1.6928355 .97033187 1.684494 .95899966 1.6761627 .9476674 1.6636607 .9370015 1.6469879 .92700198 1.6303253 .9170024 1.6079916 .91050216 1.5799866 .9075012 1.5519918 .9045003 1.5173289 .9079997 1.4759979 .91799929 1.4686636 .91933187 1.4631602 .9231618 1.4594879 .92948916 1.4558258 .9358266 1.454661 .94233199 1.4559937 .9490051 1.4579977 .95633956 1.4620005 .96183779 1.4680023 .9654999 1.4740042 .969162 1.4806722 .9703267 1.4880066 .96899417 1.5306702 .9583333 1.5664978 .9563344 1.5954895 .96299746 1.6244913 .9696706 1.6433258 .9840037 1.6519928 1.0059967 1.658666 1.0259959 1.6581675 1.0459951 1.6504974 1.0659943 1.6428274 1.0859934 1.629659 1.1013285 1.6109924 1.1119995 1.5829977 1.1293335 1.5499979 1.1295014 1.5119934 1.112503 1.473999 1.0955048 1.435669 1.0636698 1.3970032 1.0169983 1.3803305 .9956665 1.3601583 .9638316 1.3364868 .92149356 1.3128256 .87916567 1.2873281 .8294983 1.2599945 .77249148 1.2326609 .7154948 1.2048289 .65483096 1.1764984 .5904999 1.148168 .5261688 1.1203359 .46133424 1.0930023 .3959961 1.0656687 .33066813 1.0403341 .26850382 1.0169983 .20950318 .99366256 .15050252 .97332766 .09800211 .95599368 .052001954 .95066329 .03866577 .94132998 .032999677 .9279938 .035003663 .9139964 .03699748 .90633139 .04499817 .9049988 .059005739 .8996684 .12966411 .89250186 .19999187 .88349917 .269989 .87449648 .33999635 .865331 .40933229 .8560028 .47799684 .8446706 .5546672 .8341675 .63216659 .8244934 .710495 .8148295 .7888336 .80766299 .8676707 .8029938 .9470062 .8023326 .95766708 .7988332 .96299746 .7924957 .96299746 .7861684 .96299746 .7810008 .95700076 .7769928 .9450073 .755661 .88567098 .7328288 .82166549 .7084961 .7529907 .6841634 .6843262 .65833029 .6153259 .6309967 .54599 .60366317 .47666423 .5753276 .41100059 .54599 .34899903 .5166626 .28699748 .48683167 .23249817 .4564972 .1855011 .42616273 .13850403 .3963318 .10333761 .3670044 .08000183Z"/>
<path id="font_10_68" d="M.83599856 .24299622V.24299622C.8406677 .23766582 .8430023 .23133342 .8430023 .22399903 .84233096 .21666463 .83933 .21066284 .83399966 .20599365 .83199569 .20399983 .8221588 .19566854 .80448916 .18099976 .78682968 .16633098 .76349899 .148997 .7344971 .1289978 .7054952 .10899862 .6728261 .08949789 .63648989 .070495609 .60016378 .051503499 .5618337 .03633626 .52149966 .024993897 .48116557 .013661702 .4408315 .009328206 .40049745 .011993408 .36016337 .014668782 .32166545 .028004965 .28500367 .052001954 .2569987 .069997157 .23466492 .09332784 .21800232 .12199402 .21333313 .1299998 .20599874 .1343333 .19599915 .1349945 .18667095 .1356659 .17933655 .1319987 .17399597 .12399292 .1593272 .101999919 .1433258 .08116659 .12599182 .06149292 .10866801 .041829427 .09100342 .02599589 .07299805 .01399231 .05500285 .0019989014 .037668867-.004333496 .020996094-.005004883H.020004273C.008000691-.004333496-.003168742-.0004984538-.013504028 .006500244-.023839316 .013498942-.031336469 .022664389-.035995485 .033996583-.05599467 .083994548-.052993776 .13265991-.026992798 .17999268-.0049997966 .22599285 .025828043 .26515708 .06549072 .29748536 .105163577 .32982383 .14999898 .35199485 .19999695 .3639984 .20999654 .3666636 .21833293 .364329 .2250061 .35699464 .23233032 .34966026 .23465984 .34099327 .23199463 .33099366 .22866822 .32166545 .2220052 .31566874 .21200562 .31300355 .17000325 .30300395 .1323344 .28450013 .09899902 .25749208 .06566366 .23049419 .039662679 .19733174 .020996094 .15800476 .0023295086 .126002-.0010019938 .092666629 .011001587 .057998659 .01499939 .05133565 .018000285 .04800415 .020004273 .04800415 .026006064 .044006349 .035003663 .048171998 .04699707 .0605011 .059000654 .0728302 .07266744 .09032694 .08799744 .11299133 .10332743 .1356659 .11849467 .16066997 .13349915 .18800354 .14850362 .21533711 .16200257 .2420044 .17399597 .26800538 .17933655 .27999879 .18866985 .28499858 .20199585 .28300477 .21466065 .28100077 .22199504 .27366639 .22399903 .2610016 .22399903 .2603302 .22533162 .25382997 .22799683 .24150086 .23066204 .22917176 .23532613 .21400452 .24198914 .19599915 .24866231 .17800395 .25783286 .15983582 .26950074 .14149475 .2811686 .12316386 .29600016 .10799662 .31399537 .09599304 .34466554 .07533264 .37783305 .0644989 .41349793 .06349182 .4491628 .062494916 .4849955 .067830409 .5209961 .07949829 .55699667 .091166179 .59149679 .10582987 .62449648 .12348938 .65749618 .14115906 .68699648 .1593272 .71299746 .17799378 .7389984 .19666036 .7596639 .21232605 .7749939 .22499085 .79033407 .23766582 .7983348 .24433391 .798996 .24499512 .80433657 .2496643 .81066897 .25183106 .81799319 .25149537 .8253276 .25116984 .83132937 .24833679 .83599856 .24299622Z"/>
<path id="font_10_74" d="M.69599917 .2630005V.2630005C.7013295 .2583313 .7041626 .2523295 .7044983 .24499512 .704834 .23766072 .7023366 .23166402 .6970062 .227005 .66699728 .19500225 .63182577 .17216492 .5914917 .15849304 .5511678 .14483135 .5100047 .14033 .46800233 .14498902 .42599998 .1496582 .38666789 .16432698 .3500061 .18899536 .33800254 .19700115 .32666526 .19600423 .31599427 .18600464 .27666728 .14733887 .24000041 .106669109 .20599365 .06399536 .20266724 .05999756 .20066834 .055664064 .19999695 .050994874 .19333394 .010335286 .1848348-.031661989 .17449951-.07499695 .16416423-.11833191 .15266419-.16049703 .13999939-.20149231 .1273346-.24249776 .11399841-.28049723 .099990848-.31549073 .08599345-.35049439 .07182821-.37999473 .057495119-.4039917 .04316203-.42799888 .02933248-.44433595 .01600647-.45300294 .006668091-.45966593-.0033365887-.46299745-.014007568-.46299745-.028004965-.46299745-.039667768-.45799766-.04899597-.44799806-.070999149-.42466227-.08066813-.39699809-.07800293-.3650055-.07733154-.33700053-.07066345-.30532838-.057998659-.269989-.045333864-.23465984-.028666178-.1974945-.0079956059-.15849304 .012664795-.11950175 .03632609-.08016968 .06298828-.040496828 .089660648-.00083414718 .11766561 .03733317 .14700318 .07400513 .15032959 .07866415 .15232849 .08366394 .15299988 .08900452 .15766907 .11833191 .16066997 .14499919 .16200257 .16900635 .15200298 .14900716 .14033509 .12917073 .1269989 .10949707 .11366272 .08983358 .09932963 .07283529 .083999637 .058502199 .06866964 .04416911 .052668256 .03533427 .035995485 .03199768 .006668091 .026667277-.017328898 .035669965-.035995485 .059005739-.049331666 .073664348-.054829915 .093826297-.052490236 .11949158-.050160726 .14516704-.044662477 .16900127-.035995485 .19099427-.017328898 .2410024 .013336182 .28233848 .055999757 .31500245 .09866333 .3476664 .1466624 .366333 .19999695 .3710022 .20733135 .37166343 .21383159 .36965943 .21949768 .36499024 .22516378 .3603312 .22799683 .3543345 .22799683 .34700013 .22866822 .33966575 .22666931 .3331655 .22200012 .3274994 .21733094 .32183329 .21132915 .31900025 .20399475 .31900025 .16066997 .31433106 .12183634 .29882813 .0874939 .27249146 .05316162 .24616497 .028330485 .21300252 .013000488 .17300415-.00033569337 .14766439-.0036671956 .12132772 .0030059815 .09399414 .0089976 .088002528 .013824463 .08467102 .017486573 .083999637 .021158854 .08332825 .023996989 .08332825 .026000977 .083999637 .03600057 .086003627 .047164918 .09366862 .05949402 .10699463 .07183329 .12033081 .083999637 .13716634 .09599304 .15750122 .10799662 .1778361 .119166057 .19916789 .12950135 .22149658 .13983663 .24383545 .14867147 .2646688 .15600586 .28399659 .16000366 .29532878 .16799927 .30099488 .17999268 .30099488 .19199626 .30099488 .20033264 .29566447 .20500183 .28500367 .21166484 .2643331 .21499634 .24299622 .21499634 .22099304 .21566773 .21366883 .21700032 .20583599 .21899414 .1974945 .22099813 .18916321 .22533162 .18466187 .23199463 .18399048 .2386678 .18332927 .24833679 .18999736 .2610016 .20399475 .266332 .21066793 .27199809 .21683757 .27799989 .22250366 .28400169 .22816976 .29000346 .23366802 .29600526 .23899842 .30533348 .2476654 .3164978 .2523295 .3294983 .25299073 .34249879 .2536621 .3543345 .25 .3650055 .2420044 .3943329 .21866863 .426829 .20383199 .4624939 .1974945 .49816896 .19116719 .5333354 .19350179 .56799319 .20449829 .60266116 .2154948 .6329956 .23465984 .6589966 .2619934 .6636658 .26733399 .66966757 .27016703 .67700198 .27049256 .68433639 .27082826 .69066879 .2683309 .69599917 .2630005M.02999878-.34700013V-.34700013C.03800456-.33167015 .047007245-.31150309 .057006837-.28649903 .06700643-.26149497 .077168788-.23482768 .0874939-.20649719 .097829189-.1781667 .10683187-.15149944 .11450195-.12649536 .122172039-.101501468 .12767029-.08066813 .1309967-.06399536 .1343333-.047332765 .1343333-.038335165 .1309967-.037002565 .12767029-.035669965 .121673587-.041000368 .11300659-.052993776 .1043396-.06499735 .09417216-.08116659 .08250427-.101501468 .07083639-.12183634 .058832807-.14450073 .04649353-.16949463 .03416443-.1944987 .022664389-.21966553 .011993408-.24499512 .001332601-.27033488-.007329305-.29367066-.01399231-.31500245-.020665488-.33633424-.024332682-.35333253-.024993897-.3659973-.024993897-.37599693-.024495444-.3853302-.023498536-.3939972-.022501627-.40266419-.01900228-.40799967-.013000488-.41000367-.0069986979-.41133628-.0011647543-.40700279 .004501343-.39700318 .0101674399-.38700358 .018666586-.3703359 .02999878-.34700013Z"/>
<path id="font_10_85" d="M.8630066 .2630005V.2630005C.8676656 .25767008 .8699951 .2516683 .8699951 .24499512 .8699951 .23766072 .8673299 .23132833 .8619995 .22599793 .82733157 .19200135 .7886658 .16283672 .7460022 .13850403 .7033386 .11417135 .6591695 .09400431 .6134949 .07800293 .5678304 .062001546 .52349856 .050165815 .48049928 .042495729 .4375 .034835817 .39833579 .03100586 .3630066 .03100586 .32500205 .029001872 .28833518 .03600057 .25300599 .052001954 .22899883 .06599935 .21282959 .081329349 .20449829 .09799194 .19616699 .11466471 .19266765 .13183086 .19400025 .14949036 .19533284 .16716004 .1991628 .18382772 .20549011 .19949341 .21182759 .21516927 .21799724 .2286733 .22399903 .2400055 .22533162 .2426707 .22466533 .2446696 .22200012 .2460022 .21933492 .2473348 .21466573 .24633281 .20799256 .24299622 .17133077 .22299703 .1319987 .21399944 .08999634 .21600342 .07132975 .21533203 .05299886 .21899922 .035003663 .227005 .028330485 .22500102 .021662394 .22566732 .01499939 .2290039 .0043284099 .2343343-.00033569337 .2430013 .0010070801 .25500489-.009002686 .2669983-.01600647 .28066508-.020004273 .29600526-.027999878 .32333885-.027328492 .3503367-.017990113 .3769989-.008661906 .40367127 .0076700847 .42566935 .03100586 .44299317 .059000654 .45966593 .08099874 .4603373 .09700012 .44500733 .09900411 .44300334 .101501468 .4394989 .10449219 .43449403 .10749308 .4294993 .109324138 .42166648 .10998535 .41099549 .11065674 .4003347 .10848999 .3853353 .10348511 .3659973 .098490398 .34666953 .08899435 .32133485 .07499695 .2899933 .073664348 .2873281 .074661258 .2829946 .07798767 .2769928 .08132426 .2710012 .08532715 .26800538 .08999634 .26800538 .12866211 .26800538 .16499837 .27766929 .19900513 .29699708 .21033733 .30299888 .22233582 .30799867 .23500061 .31199647 .2476654 .31599427 .2609965 .31266276 .2749939 .30200196 .28900147 .29133097 .29367066 .27816264 .28900147 .26249696 .28433229 .24683126 .27833048 .23166402 .2709961 .21699524 .2556661 .18566387 .2476654 .16116333 .24699402 .14349365 .24633281 .12583415 .25733439 .1103363 .27999879 .09700012 .29266358 .08966573 .3141632 .08516439 .34449769 .083496097 .37483216 .0818278 .4101664 .08416239 .4505005 .09049988 .49083457 .096837367 .5333354 .107172649 .5780029 .12150574 .6226705 .13583882 .66633608 .15466817 .70899966 .17799378 .7516632 .20132955 .790329 .23000081 .82499697 .26400758 .83032736 .2686666 .8366597 .2709961 .84399417 .2709961 .85132858 .2709961 .857666 .2683309 .8630066 .2630005M.029006958 .31799317V.31799317C.041000368 .34333293 .05033366 .3696696 .057006837 .39700318 .03233846 .3756714 .023005167 .34933473 .029006958 .31799317Z"/>
</defs>
<g>
<g clip-path="url(#clip_1)">
<path transform="matrix(1.5,0,0,1.5,0,0)" d="M0 0H500V500H0Z" fill="#ffffff"/>
</g>
<g clip-path="url(#clip_2)">
<g id="layer_1" data-name="Div">
<path transform="matrix(1.5,0,0,1.5,0,0)" d="M0 0H500V500H0Z" fill="#f4f4f4"/>
</g>
<g clip-path="url(#clip_3)">
</g>
<g id="layer_1" data-name="P">
<g id="layer_2" data-name="NonStruct">
<use data-text="N" xlink:href="#font_4_49" transform="matrix(363.585,0,0,-363.585,250.27892,558.28506)" fill="#3b3937"/>
</g>
</g>
<g id="layer_1" data-name="P">
<g id="layer_2" data-name="NonStruct">
<use data-text="A" xlink:href="#font_4_36" transform="matrix(363.585,0,0,-363.585,139.58316,396.99888)" fill="#3b3937"/>
</g>
</g>
<g clip-path="url(#clip_5)">
<g clip-path="url(#clip_6)">
<g clip-path="url(#clip_7)">
</g>
<g>
<g clip-path="url(#clip_8)">
<g id="layer_1" data-name="Div">
<path transform="matrix(.19511631,-.21404946,.21404946,.19511631,159.06111,488.66767)" d="M0 0H1933V256H0Z" fill="#f4f4f4"/>
</g>
</g>
</g>
</g>
</g>
</g>
<g clip-path="url(#clip_9)">
<g id="layer_1" data-name="H1">
<g id="layer_2" data-name="NonStruct">
<use data-text="A" xlink:href="#font_10_36" transform="matrix(26.72191,-32.383325,-32.383325,-26.72191,255.61632,469.15693)" fill="#967f71"/>
<use data-text="n" xlink:href="#font_10_81" transform="matrix(26.72191,-32.383325,-32.383325,-26.72191,311.29359,401.68367)" fill="#967f71"/>
<use data-text="k" xlink:href="#font_10_78" transform="matrix(26.72191,-32.383325,-32.383325,-26.72191,333.54847,374.71376)" fill="#967f71"/>
<use data-text="i" xlink:href="#font_10_76" transform="matrix(26.72191,-32.383325,-32.383325,-26.72191,354.60115,349.2008)" fill="#967f71"/>
<use data-text="t" xlink:href="#font_10_87" transform="matrix(26.72191,-32.383325,-32.383325,-26.72191,371.00508,329.32145)" fill="#967f71"/>
<use data-text=" " xlink:href="#font_10_3" transform="matrix(26.72191,-32.383325,-32.383325,-26.72191,388.07695,308.63264)" fill="#967f71"/>
<use data-text="N" xlink:href="#font_10_49" transform="matrix(26.72191,-32.383325,-32.383325,-26.72191,398.0155,296.58848)" fill="#967f71"/>
<use data-text="a" xlink:href="#font_10_68" transform="matrix(26.72191,-32.383325,-32.383325,-26.72191,429.0334,258.99897)" fill="#967f71"/>
<use data-text="g" xlink:href="#font_10_74" transform="matrix(26.72191,-32.383325,-32.383325,-26.72191,450.62037,232.83852)" fill="#967f71"/>
<use data-text="a" xlink:href="#font_10_68" transform="matrix(26.72191,-32.383325,-32.383325,-26.72191,468.22657,211.5022)" fill="#967f71"/>
<use data-text="r" xlink:href="#font_10_85" transform="matrix(26.72191,-32.383325,-32.383325,-26.72191,489.81355,185.3417)" fill="#967f71"/>
</g>
</g>
</g>
</g>
</svg>
